<mxfile host="app.diagrams.net" modified="2024-06-07T10:42:24.529Z" agent="Mozilla/5.0 (X11; Linux x86_64) AppleWebKit/537.36 (KHTML, like Gecko) Chrome/125.0.0.0 Safari/537.36" etag="ndnl167RQRR_YG-cma1b" version="24.4.13" type="google">
  <diagram name="Page-1" id="0IdjoXE6Dxk4_B7oDJdT">
    <mxGraphModel grid="1" page="1" gridSize="10" guides="1" tooltips="1" connect="1" arrows="1" fold="1" pageScale="1" pageWidth="850" pageHeight="1100" math="0" shadow="0">
      <root>
        <mxCell id="0" />
        <mxCell id="1" parent="0" />
        <mxCell id="vmTuUtT3MLoUGNVQRsAq-1" value="" style="rounded=0;whiteSpace=wrap;html=1;" vertex="1" parent="1">
          <mxGeometry x="340" y="90" width="120" height="60" as="geometry" />
        </mxCell>
        <mxCell id="vmTuUtT3MLoUGNVQRsAq-2" value="&lt;b&gt;&lt;font style=&quot;font-size: 14px;&quot;&gt;Staff / Doctor&lt;/font&gt;&lt;/b&gt;" style="text;strokeColor=none;align=center;fillColor=none;html=1;verticalAlign=middle;whiteSpace=wrap;rounded=0;" vertex="1" parent="1">
          <mxGeometry x="370" y="105" width="60" height="30" as="geometry" />
        </mxCell>
        <mxCell id="vmTuUtT3MLoUGNVQRsAq-3" value="" style="ellipse;whiteSpace=wrap;html=1;aspect=fixed;" vertex="1" parent="1">
          <mxGeometry x="355" y="220" width="90" height="90" as="geometry" />
        </mxCell>
        <mxCell id="vmTuUtT3MLoUGNVQRsAq-4" value="&lt;b&gt;&lt;font style=&quot;font-size: 14px;&quot;&gt;Hospital Module&lt;/font&gt;&lt;/b&gt;" style="text;strokeColor=none;align=center;fillColor=none;html=1;verticalAlign=middle;whiteSpace=wrap;rounded=0;" vertex="1" parent="1">
          <mxGeometry x="370" y="250" width="60" height="30" as="geometry" />
        </mxCell>
        <mxCell id="vmTuUtT3MLoUGNVQRsAq-5" value="" style="rounded=0;whiteSpace=wrap;html=1;" vertex="1" parent="1">
          <mxGeometry x="70" y="235" width="120" height="60" as="geometry" />
        </mxCell>
        <mxCell id="vmTuUtT3MLoUGNVQRsAq-6" value="&lt;b&gt;&lt;font style=&quot;font-size: 14px;&quot;&gt;Admin&lt;/font&gt;&lt;/b&gt;" style="text;strokeColor=none;align=center;fillColor=none;html=1;verticalAlign=middle;whiteSpace=wrap;rounded=0;" vertex="1" parent="1">
          <mxGeometry x="100" y="250" width="60" height="30" as="geometry" />
        </mxCell>
        <mxCell id="vmTuUtT3MLoUGNVQRsAq-8" value="" style="rounded=0;whiteSpace=wrap;html=1;" vertex="1" parent="1">
          <mxGeometry x="610" y="235" width="120" height="60" as="geometry" />
        </mxCell>
        <mxCell id="vmTuUtT3MLoUGNVQRsAq-9" value="&lt;b&gt;&lt;font style=&quot;font-size: 14px;&quot;&gt;Patient&lt;/font&gt;&lt;/b&gt;" style="text;strokeColor=none;align=center;fillColor=none;html=1;verticalAlign=middle;whiteSpace=wrap;rounded=0;" vertex="1" parent="1">
          <mxGeometry x="640" y="250" width="60" height="30" as="geometry" />
        </mxCell>
        <mxCell id="vmTuUtT3MLoUGNVQRsAq-10" value="" style="endArrow=classic;html=1;rounded=0;entryX=0.5;entryY=0;entryDx=0;entryDy=0;" edge="1" parent="1" target="vmTuUtT3MLoUGNVQRsAq-3">
          <mxGeometry width="50" height="50" relative="1" as="geometry">
            <mxPoint x="400" y="150" as="sourcePoint" />
            <mxPoint x="450" y="100" as="targetPoint" />
          </mxGeometry>
        </mxCell>
        <mxCell id="vmTuUtT3MLoUGNVQRsAq-11" value="Patient Diagnosis" style="text;strokeColor=none;align=center;fillColor=none;html=1;verticalAlign=middle;whiteSpace=wrap;rounded=0;" vertex="1" parent="1">
          <mxGeometry x="400" y="170" width="110" height="30" as="geometry" />
        </mxCell>
        <mxCell id="vmTuUtT3MLoUGNVQRsAq-12" value="" style="endArrow=classic;html=1;rounded=0;entryX=0.033;entryY=0.356;entryDx=0;entryDy=0;entryPerimeter=0;exitX=1;exitY=0.25;exitDx=0;exitDy=0;" edge="1" parent="1" source="vmTuUtT3MLoUGNVQRsAq-5" target="vmTuUtT3MLoUGNVQRsAq-3">
          <mxGeometry width="50" height="50" relative="1" as="geometry">
            <mxPoint x="250" y="250" as="sourcePoint" />
            <mxPoint x="350" y="250" as="targetPoint" />
          </mxGeometry>
        </mxCell>
        <mxCell id="vmTuUtT3MLoUGNVQRsAq-13" value="Staff / Patient Information" style="text;strokeColor=none;align=center;fillColor=none;html=1;verticalAlign=middle;whiteSpace=wrap;rounded=0;" vertex="1" parent="1">
          <mxGeometry x="230" y="210" width="90" height="30" as="geometry" />
        </mxCell>
        <mxCell id="vmTuUtT3MLoUGNVQRsAq-14" value="" style="endArrow=classic;html=1;rounded=0;entryX=1;entryY=0.75;entryDx=0;entryDy=0;" edge="1" parent="1" target="vmTuUtT3MLoUGNVQRsAq-5">
          <mxGeometry width="50" height="50" relative="1" as="geometry">
            <mxPoint x="355" y="280" as="sourcePoint" />
            <mxPoint x="405" y="230" as="targetPoint" />
          </mxGeometry>
        </mxCell>
        <mxCell id="vmTuUtT3MLoUGNVQRsAq-15" value="Modified Staff / Patient Information" style="text;strokeColor=none;align=center;fillColor=none;html=1;verticalAlign=middle;whiteSpace=wrap;rounded=0;" vertex="1" parent="1">
          <mxGeometry x="220" y="290" width="110" height="30" as="geometry" />
        </mxCell>
        <mxCell id="vmTuUtT3MLoUGNVQRsAq-16" value="" style="endArrow=classic;html=1;rounded=0;entryX=0.996;entryY=0.419;entryDx=0;entryDy=0;entryPerimeter=0;" edge="1" parent="1" target="vmTuUtT3MLoUGNVQRsAq-3">
          <mxGeometry width="50" height="50" relative="1" as="geometry">
            <mxPoint x="610" y="260" as="sourcePoint" />
            <mxPoint x="660" y="210" as="targetPoint" />
          </mxGeometry>
        </mxCell>
        <mxCell id="vmTuUtT3MLoUGNVQRsAq-17" value="Patient Information" style="text;strokeColor=none;align=center;fillColor=none;html=1;verticalAlign=middle;whiteSpace=wrap;rounded=0;" vertex="1" parent="1">
          <mxGeometry x="470" y="260" width="110" height="30" as="geometry" />
        </mxCell>
        <mxCell id="vmTuUtT3MLoUGNVQRsAq-18" value="" style="endArrow=classic;html=1;rounded=0;entryX=0.366;entryY=0.012;entryDx=0;entryDy=0;entryPerimeter=0;exitX=0.833;exitY=0.111;exitDx=0;exitDy=0;exitPerimeter=0;" edge="1" parent="1" source="vmTuUtT3MLoUGNVQRsAq-3" target="vmTuUtT3MLoUGNVQRsAq-8">
          <mxGeometry width="50" height="50" relative="1" as="geometry">
            <mxPoint x="430" y="230" as="sourcePoint" />
            <mxPoint x="480" y="180" as="targetPoint" />
            <Array as="points">
              <mxPoint x="560" y="200" />
              <mxPoint x="654" y="200" />
            </Array>
          </mxGeometry>
        </mxCell>
        <mxCell id="vmTuUtT3MLoUGNVQRsAq-19" value="Bill Information" style="text;strokeColor=none;align=center;fillColor=none;html=1;verticalAlign=middle;whiteSpace=wrap;rounded=0;" vertex="1" parent="1">
          <mxGeometry x="560" y="170" width="90" height="30" as="geometry" />
        </mxCell>
        <mxCell id="vmTuUtT3MLoUGNVQRsAq-20" value="" style="endArrow=classic;html=1;rounded=0;entryX=0.366;entryY=0.012;entryDx=0;entryDy=0;entryPerimeter=0;exitX=1;exitY=1;exitDx=0;exitDy=0;" edge="1" parent="1" source="vmTuUtT3MLoUGNVQRsAq-3">
          <mxGeometry width="50" height="50" relative="1" as="geometry">
            <mxPoint x="430" y="290" as="sourcePoint" />
            <mxPoint x="654" y="296" as="targetPoint" />
            <Array as="points">
              <mxPoint x="560" y="330" />
              <mxPoint x="654" y="330" />
            </Array>
          </mxGeometry>
        </mxCell>
        <mxCell id="vmTuUtT3MLoUGNVQRsAq-21" value="Diagnosis Information" style="text;strokeColor=none;align=center;fillColor=none;html=1;verticalAlign=middle;whiteSpace=wrap;rounded=0;" vertex="1" parent="1">
          <mxGeometry x="545" y="330" width="120" height="30" as="geometry" />
        </mxCell>
        <mxCell id="vmTuUtT3MLoUGNVQRsAq-22" value="fig. Hospital Management System - Level 0" style="text;strokeColor=none;align=center;fillColor=none;html=1;verticalAlign=middle;whiteSpace=wrap;rounded=0;" vertex="1" parent="1">
          <mxGeometry x="275" y="390" width="250" height="30" as="geometry" />
        </mxCell>
      </root>
    </mxGraphModel>
  </diagram>
</mxfile>
